<svg width="10" height="9" viewBox="0 0 10 9" fill="none" xmlns="http://www.w3.org/2000/svg">
<path d="M4.19293 0.345484C4.3426 -0.115171 4.99431 -0.115172 5.14399 0.345483L5.90328 2.68236C5.97022 2.88838 6.1622 3.02786 6.37881 3.02786H8.83595C9.32032 3.02786 9.5217 3.64766 9.12985 3.93236L7.14198 5.37664C6.96673 5.50396 6.8934 5.72964 6.96034 5.93565L7.71964 8.27253C7.86932 8.73319 7.34208 9.11625 6.95022 8.83155L4.96235 7.38728C4.78711 7.25996 4.54981 7.25996 4.37456 7.38728L2.3867 8.83155C1.99484 9.11625 1.4676 8.73319 1.61727 8.27253L2.37657 5.93565C2.44351 5.72964 2.37018 5.50396 2.19494 5.37664L0.207068 3.93236C-0.184789 3.64766 0.0165983 3.02786 0.50096 3.02786H2.9581C3.17471 3.02786 3.36669 2.88838 3.43363 2.68236L4.19293 0.345484Z" fill="#FFB800"/>
</svg>
